<svg width="100" height="100" viewBox="0 0 100 100" fill="none" xmlns="http://www.w3.org/2000/svg">
<circle cx="50" cy="50" r="50" fill="#29BF25" fill-opacity="0.1"/>
<path d="M50.8947 65.2788C59.8588 65.2788 67.1257 58.0119 67.1257 49.0478C67.1257 40.0837 59.8588 32.8168 50.8947 32.8168C41.9306 32.8168 34.6637 40.0837 34.6637 49.0478C34.6637 58.0119 41.9306 65.2788 50.8947 65.2788Z" fill="#FFB6B6"/>
<path d="M41.5771 67.679L40.8438 60.2666L55.4869 57.5286L64.1335 78.5812L49.0959 95.8745L38.3816 74.8218L41.5771 67.679Z" fill="#FFB6B6"/>
<path d="M40.6085 63.977L43.8098 64.7003C43.8098 64.7003 41.2933 56.7201 42.1474 55.9582C43.0016 55.1963 45.0948 56.3968 45.0948 56.3968L47.2944 58.863L49.9738 56.1351C49.9738 56.1351 52.8826 52.5181 54.0215 51.5023C55.1604 50.4865 53.331 46.7159 53.331 46.7159C53.331 46.7159 70.228 42.1597 63.9406 33.9641C63.9406 33.9641 60.2544 27.5384 59.0539 29.6316C57.8535 31.7248 56.422 28.4004 56.422 28.4004L52.051 29.2316C52.051 29.2316 43.4243 24.145 35.2365 35.0266C27.0487 45.9082 40.6085 63.977 40.6085 63.977Z" fill="#2F2E41"/>
<path d="M81.421 88.9004C72.5507 96.0921 61.577 100 49.9999 100C39.4285 100 29.359 96.7406 20.936 90.6993C20.9511 90.5414 20.9661 90.3853 20.9793 90.2293C21.203 87.7857 21.4022 85.4098 21.5338 83.4399C22.0432 75.7914 39.8872 70.6936 39.8872 70.6936C39.8872 70.6936 39.968 70.7744 40.1297 70.9154C41.1146 71.7801 45.1127 74.9154 52.124 75.7914C58.3759 76.5733 60.4342 72.8647 61.0563 71.0883C61.2443 70.547 61.3007 70.1842 61.3007 70.1842L79.6541 78.8515C80.8515 80.562 81.3195 84.2462 81.4116 88.3872C81.4154 88.5583 81.4191 88.7274 81.421 88.9004Z" fill="#29BF25"/>
</svg>
