<svg width="100" height="100" viewBox="0 0 100 100" fill="none" xmlns="http://www.w3.org/2000/svg">
<g clip-path="url(#clip0_274_437)">
<g filter="url(#filter0_i_274_437)">
<path d="M98.8205 23.9705C98.0759 23.6685 96.8869 23.0408 95.4699 22.6628C94.053 22.263 92.1384 21.5982 90.1858 21.431C88.2132 21.2249 85.9833 21.1641 83.5464 21.2819C81.1674 21.4757 78.7523 21.9809 76.1624 22.6504C73.5755 23.3181 71.2088 24.4292 68.6807 25.6448C66.2133 26.9023 63.9645 28.4712 61.7127 30.1797C59.5844 31.9442 57.5653 33.8978 55.7191 35.9748C53.9973 38.1088 52.2859 40.3045 50.9678 42.6474C49.6087 44.9742 48.4368 47.3703 47.5887 49.8205C45.7748 54.6716 45.0521 59.6632 44.9761 64.1088C44.9827 66.3643 45.1157 68.4575 45.3949 70.3806C45.639 72.2924 46.1176 74.0569 46.4871 75.4834C46.6362 76.1529 46.846 76.793 47.0531 77.3591C47.4168 76.5955 47.8119 75.7902 48.2525 74.9088C50.4416 70.5668 53.6326 64.9122 57.364 59.6167C59.2226 56.9651 61.2616 54.4437 63.2493 52.1644C64.3025 51.0694 65.3206 50.0161 66.2817 49.0171C67.315 48.0892 68.2903 47.2098 69.184 46.4006C70.1537 45.6722 71.0369 45.0093 71.8232 44.4186C72.5773 43.7927 73.3665 43.429 73.9582 43.0529C75.1643 42.3387 75.8528 41.9313 75.8528 41.9313C75.8528 41.9313 75.1966 42.3948 74.0522 43.1963C73.4957 43.6218 72.7483 44.0349 72.0464 44.714C71.319 45.356 70.4994 46.0787 69.6028 46.8669C68.7813 47.7369 67.8934 48.6704 66.9541 49.6619C66.0899 50.7151 65.1763 51.8263 64.2342 52.9773C62.4563 55.3725 60.669 57.9851 59.0602 60.7222C55.8207 66.1716 53.1502 71.9353 51.3533 76.322C50.8481 77.5575 50.4226 78.6621 50.057 79.6374C50.8262 79.4323 51.8035 79.2148 52.8577 78.8254C54.1948 78.361 55.9214 77.8824 57.5948 77.1995C59.3081 76.5442 61.1343 75.7702 62.9768 74.8889C64.8486 74.0209 66.6721 73.0009 68.5401 71.9277C70.4063 70.8593 72.1737 69.637 73.9297 68.3796C75.6354 67.0728 77.3287 65.7527 78.8653 64.2911C80.3839 62.7887 81.9176 61.3793 83.2434 59.7506C85.97 56.627 88.293 53.286 90.1858 49.7597C91.1706 48.0987 91.9893 46.1651 92.7918 44.4176C93.6038 42.6835 94.2932 40.7594 94.9799 38.9948C95.6722 37.2626 96.3123 35.5075 96.8774 33.7981C97.4918 32.0373 98.0284 30.5026 98.4738 29.2414C98.9876 27.9868 99.3086 26.6753 99.5983 25.9032C99.8652 25.0313 100.002 24.5707 100.002 24.5707C100.002 24.5707 99.5878 24.32 98.8205 23.9705Z" fill="url(#paint0_linear_274_437)"/>
</g>
<g filter="url(#filter1_i_274_437)">
<path d="M38.3956 63.0033C35.744 61.1438 33.2254 59.1039 30.9452 57.1142C29.853 56.0677 28.7988 55.0467 27.7978 54.0856C26.8681 53.0524 25.9944 52.077 25.1786 51.1833C24.452 50.2175 23.791 49.3267 23.1975 48.5441C22.5716 47.7891 22.2126 47.0008 21.8337 46.4092C21.1176 45.2059 20.7112 44.5145 20.7112 44.5145C20.7112 44.5145 21.1746 45.1708 21.98 46.3152C22.3988 46.8707 22.8147 47.6172 23.4976 48.319C24.1396 49.0494 24.8614 49.8689 25.6506 50.7655C26.5186 51.5841 27.454 52.4749 28.4455 53.4104C29.4969 54.2746 30.6118 55.1882 31.761 56.1303C34.1533 57.9015 36.7687 59.6955 39.5039 61.3043C40.6359 61.9805 41.7832 62.575 42.9266 63.1857C43.3046 57.0696 44.5601 51.0238 46.4396 45.5174C45.3626 44.1251 44.2704 42.7547 43.0691 41.5002C41.5676 39.9787 40.1639 38.445 38.5295 37.1211C35.404 34.3945 32.0668 32.0724 28.5415 30.1768C26.8804 29.192 24.944 28.3734 23.1965 27.5718C21.4662 26.7598 19.544 26.0675 17.7785 25.3846C16.0443 24.6951 14.2912 24.0569 12.5798 23.4919C10.82 22.8727 9.28907 22.3361 8.02311 21.8907C6.76855 21.3797 5.45416 21.0559 4.6849 20.7662C3.81687 20.5032 3.35437 20.3636 3.35437 20.3636C3.35437 20.3636 3.097 20.7824 2.74466 21.5488C2.4455 22.2914 1.8168 23.4824 1.43692 24.8993C1.03899 26.3115 0.372298 28.2271 0.209899 30.1806C1.46195e-05 32.1551 -0.0598167 34.3878 0.0607957 36.8238C0.248837 39.2009 0.75313 41.6122 1.42457 44.2059C2.09696 46.791 3.20526 49.1605 4.41899 51.6905C5.67829 54.1512 7.2453 56.4001 8.95952 58.6556C10.7231 60.7877 12.6767 62.8058 14.7527 64.6549C16.8829 66.371 19.0834 68.0833 21.4301 69.4063C23.7521 70.7653 26.1492 71.9382 28.5984 72.7834C33.4476 74.6002 38.4393 75.322 42.8886 75.3998C43.0786 75.3998 43.241 75.3799 43.4214 75.3742C42.9456 72.2573 42.7728 69.0758 42.8316 65.881C41.3549 64.9531 39.8714 64.0433 38.3956 63.0033Z" fill="url(#paint1_linear_274_437)"/>
</g>
</g>
<defs>
<filter id="filter0_i_274_437" x="44.9761" y="21.2224" width="58.0259" height="65.415" filterUnits="userSpaceOnUse" color-interpolation-filters="sRGB">
<feFlood flood-opacity="0" result="BackgroundImageFix"/>
<feBlend mode="normal" in="SourceGraphic" in2="BackgroundImageFix" result="shape"/>
<feColorMatrix in="SourceAlpha" type="matrix" values="0 0 0 0 0 0 0 0 0 0 0 0 0 0 0 0 0 0 127 0" result="hardAlpha"/>
<feOffset dx="3" dy="7"/>
<feGaussianBlur stdDeviation="4.75"/>
<feComposite in2="hardAlpha" operator="arithmetic" k2="-1" k3="1"/>
<feColorMatrix type="matrix" values="0 0 0 0 1 0 0 0 0 1 0 0 0 0 1 0 0 0 0.15 0"/>
<feBlend mode="normal" in2="shape" result="effect1_innerShadow_274_437"/>
</filter>
<filter id="filter1_i_274_437" x="-0.000854492" y="20.3636" width="51.4404" height="64.7363" filterUnits="userSpaceOnUse" color-interpolation-filters="sRGB">
<feFlood flood-opacity="0" result="BackgroundImageFix"/>
<feBlend mode="normal" in="SourceGraphic" in2="BackgroundImageFix" result="shape"/>
<feColorMatrix in="SourceAlpha" type="matrix" values="0 0 0 0 0 0 0 0 0 0 0 0 0 0 0 0 0 0 127 0" result="hardAlpha"/>
<feOffset dx="5" dy="15"/>
<feGaussianBlur stdDeviation="4.85"/>
<feComposite in2="hardAlpha" operator="arithmetic" k2="-1" k3="1"/>
<feColorMatrix type="matrix" values="0 0 0 0 1 0 0 0 0 1 0 0 0 0 1 0 0 0 0.15 0"/>
<feBlend mode="normal" in2="shape" result="effect1_innerShadow_274_437"/>
</filter>
<linearGradient id="paint0_linear_274_437" x1="97.875" y1="33.125" x2="45" y2="68.4375" gradientUnits="userSpaceOnUse">
<stop stop-color="#29BF25"/>
<stop offset="1" stop-color="#0B560A"/>
</linearGradient>
<linearGradient id="paint1_linear_274_437" x1="-3.74998" y1="35.5" x2="45.0625" y2="56.875" gradientUnits="userSpaceOnUse">
<stop stop-color="#D6DA22"/>
<stop offset="0.499801" stop-color="#89C205"/>
<stop offset="1" stop-color="#0B560A"/>
</linearGradient>
<clipPath id="clip0_274_437">
<rect width="100" height="100" fill="white"/>
</clipPath>
</defs>
</svg>
